<svg xmlns="http://www.w3.org/2000/svg" width="166" height="166" viewBox="0 0 166 166" version="1.1"><path d="M 68.362 14.223 C 67.946 14.896, 64.824 24.008, 61.424 34.473 L 55.242 53.500 33.996 54 L 12.751 54.500 8.895 66.500 C 6.774 73.100, 5.030 79.027, 5.019 79.672 C 5.009 80.317, 12.537 86.320, 21.750 93.013 C 33.444 101.508, 38.402 105.682, 38.175 106.841 C 37.996 107.753, 35.140 116.760, 31.829 126.855 C 28.518 136.950, 26.190 145.554, 26.655 145.974 C 27.120 146.395, 31.883 149.948, 37.239 153.869 C 42.595 157.791, 47.576 161, 48.307 161 C 49.038 161, 55.680 156.602, 63.068 151.227 C 70.456 145.851, 77.945 140.433, 79.711 139.187 L 82.921 136.920 99.445 148.960 C 108.533 155.582, 116.417 161, 116.965 161 C 117.512 161, 122.694 157.537, 128.480 153.304 C 134.266 149.071, 139 145.200, 139 144.701 C 139 144.203, 136.300 135.373, 133 125.081 C 129.700 114.788, 127 105.883, 127 105.292 C 127 104.702, 134.043 99.107, 142.651 92.859 C 151.258 86.612, 158.783 81.187, 159.372 80.804 C 160.087 80.339, 159.141 76.032, 156.515 67.804 C 154.356 61.037, 152.176 54.938, 151.672 54.250 C 150.989 53.319, 145.430 53, 129.906 53 L 109.058 53 102.883 33.750 C 99.487 23.162, 96.212 14.169, 95.604 13.765 C 94.997 13.361, 88.789 13.024, 81.809 13.015 C 72.870 13.005, 68.895 13.362, 68.362 14.223 M 60.719 47.208 C 55.339 63.868, 50.951 77.978, 50.969 78.562 C 50.986 79.146, 52.385 80.648, 54.079 81.900 C 55.772 83.152, 57.459 83.876, 57.829 83.509 C 58.198 83.143, 62.113 71.741, 66.530 58.171 C 71.907 41.648, 75.018 33.500, 75.948 33.500 C 76.832 33.500, 78.420 37.035, 80.325 43.250 L 83.315 53 88.064 53 L 92.814 53 89.436 42.250 C 87.579 36.338, 84.993 28.350, 83.691 24.500 L 81.323 17.500 75.912 17.208 L 70.500 16.915 60.719 47.208 M 85 17.665 C 85 18.091, 87.578 26.215, 90.729 35.720 L 96.457 53 101.131 53 L 105.805 53 99.951 35.250 L 94.096 17.500 89.548 17.195 C 87.047 17.028, 85 17.239, 85 17.665 M 68.111 63.703 L 60.817 86.402 64.159 89.174 C 65.996 90.699, 67.788 91.958, 68.140 91.973 C 68.492 91.988, 71.486 83.632, 74.792 73.405 L 80.805 54.811 78.771 48.655 C 77.653 45.270, 76.438 42.164, 76.071 41.752 C 75.704 41.341, 72.122 51.219, 68.111 63.703 M 14.158 60.866 C 13.521 62.992, 13 65.017, 13 65.366 C 13 65.715, 21.561 66, 32.025 66 C 50.838 66, 51.059 65.975, 51.891 63.750 C 52.354 62.513, 53.048 60.487, 53.434 59.250 L 54.135 57 34.726 57 L 15.317 57 14.158 60.866 M 82.158 60.866 C 81.521 62.992, 81 65.017, 81 65.366 C 81 65.715, 93.150 66, 108 66 C 128.947 66, 134.994 66.280, 134.974 67.250 C 134.960 67.938, 131.360 71.094, 126.974 74.265 C 122.160 77.745, 119.018 80.717, 119.045 81.765 C 119.070 82.719, 119.634 84.772, 120.298 86.327 L 121.507 89.154 135.503 79.017 C 143.202 73.441, 150.129 68.261, 150.898 67.505 C 152.069 66.355, 152.089 65.388, 151.018 61.566 L 149.740 57 116.528 57 L 83.317 57 82.158 60.866 M 9.768 74.045 L 8.155 79.090 14.827 83.942 C 18.497 86.611, 30.500 95.327, 41.500 103.310 L 61.500 117.826 64.500 115.535 C 66.150 114.275, 67.500 112.787, 67.500 112.229 C 67.500 111.671, 58.950 105.035, 48.500 97.484 C 38.050 89.933, 28.501 82.844, 27.281 81.732 C 26.060 80.619, 25.299 79.325, 25.590 78.855 C 25.880 78.385, 30.828 78, 36.584 78 C 46.521 78, 47.092 77.886, 47.891 75.750 C 48.354 74.513, 49.048 72.487, 49.434 71.250 L 50.135 69 30.758 69 L 11.382 69 9.768 74.045 M 78.695 71.750 C 78.390 73.263, 77.835 75.287, 77.463 76.250 C 76.832 77.880, 78.134 78, 96.509 78 L 116.232 78 121.366 74.326 C 124.190 72.306, 126.927 70.281, 127.450 69.826 C 127.972 69.372, 117.341 69, 103.825 69 L 79.250 69 78.695 71.750 M 138.250 81.068 C 129.863 87.175, 123 92.742, 123 93.437 C 123 94.133, 123.501 96.139, 124.114 97.896 C 124.726 99.653, 125.536 100.958, 125.914 100.795 C 126.292 100.633, 133.196 95.775, 141.257 90 C 151.751 82.482, 155.912 78.932, 155.911 77.500 C 155.910 76.400, 155.368 74.254, 154.705 72.732 L 153.500 69.963 138.250 81.068 M 33.452 81.923 C 33.766 82.431, 42.155 88.759, 52.094 95.986 C 62.033 103.213, 70.698 109.330, 71.349 109.580 C 72.001 109.830, 74.068 108.754, 75.944 107.188 L 79.354 104.341 71.927 98.880 C 67.842 95.876, 60.635 90.625, 55.910 87.209 L 47.321 81 40.101 81 C 35.945 81, 33.124 81.392, 33.452 81.923 M 75.090 83.263 C 74.598 84.558, 73.614 87.557, 72.904 89.927 C 71.615 94.228, 71.619 94.240, 75.056 97.067 C 76.950 98.624, 79.483 100.431, 80.684 101.083 C 82.587 102.115, 83.519 101.789, 87.934 98.548 C 90.720 96.503, 92.965 94.080, 92.922 93.165 C 92.880 92.249, 92.055 89.250, 91.090 86.500 L 89.335 81.500 82.660 81.204 C 76.441 80.928, 75.924 81.069, 75.090 83.263 M 93 81.695 C 93 82.137, 95.738 90.714, 99.085 100.755 L 105.170 119.012 110.818 123.056 C 113.925 125.281, 116.578 126.741, 116.715 126.300 C 116.851 125.860, 113.709 115.600, 109.732 103.500 L 102.500 81.500 97.750 81.195 C 95.138 81.028, 93 81.252, 93 81.695 M 106.841 81.492 C 106.519 81.814, 109.791 92.973, 114.111 106.289 C 118.432 119.605, 121.975 131.287, 121.984 132.250 C 121.993 133.213, 121.619 134, 121.154 134 C 120.689 134, 116.587 131.312, 112.038 128.027 C 105.697 123.448, 103.386 122.275, 102.133 122.999 C 101.235 123.518, 99.504 124.743, 98.286 125.722 C 96.074 127.498, 96.088 127.512, 111.629 138.734 L 127.188 149.967 131.480 147.014 L 135.772 144.060 125.592 112.780 L 115.411 81.500 111.419 81.203 C 109.224 81.040, 107.164 81.170, 106.841 81.492 M 78.685 109.250 L 63.079 120.500 60.608 127.750 C 59.249 131.738, 58.364 135, 58.641 135 C 58.917 135, 67.849 128.670, 78.488 120.932 L 97.833 106.865 96.322 102.432 C 95.492 99.995, 94.695 98, 94.552 98 C 94.409 98, 87.269 103.063, 78.685 109.250 M 35.705 125.435 C 32.567 135.025, 30 143.313, 30 143.854 C 30 144.395, 31.599 145.825, 33.553 147.033 C 35.507 148.240, 37.249 149.064, 37.425 148.864 C 37.601 148.664, 40.306 140.466, 43.435 130.646 C 46.565 120.827, 48.985 112.693, 48.813 112.572 C 48.641 112.451, 47.081 111.373, 45.346 110.176 C 43.611 108.979, 42.015 108, 41.800 108 C 41.585 108, 38.842 115.846, 35.705 125.435 M 76.167 126.652 C 63.524 135.887, 54.468 141.868, 53.935 141.335 C 53.401 140.801, 54.349 136.445, 56.261 130.640 L 59.487 120.846 55.993 117.985 C 54.072 116.411, 52.220 115.433, 51.878 115.812 C 51.535 116.190, 48.940 123.796, 46.110 132.713 C 43.281 141.630, 40.717 149.574, 40.413 150.367 C 40.059 151.290, 41.421 152.882, 44.204 154.796 L 48.548 157.785 74.524 138.887 C 88.811 128.494, 100.649 119.546, 100.830 119.004 C 101.012 118.461, 100.640 116.439, 100.003 114.509 C 99.366 112.579, 98.542 111.016, 98.172 111.035 C 97.803 111.054, 87.900 118.082, 76.167 126.652 M 89.141 132.396 L 85.816 134.849 93.158 140.240 C 97.196 143.205, 104.080 148.260, 108.455 151.474 L 116.411 157.318 119.913 155.287 C 121.839 154.170, 123.535 152.861, 123.682 152.378 C 123.829 151.895, 117.364 146.775, 109.316 141 C 101.268 135.225, 94.184 130.375, 93.574 130.222 C 92.965 130.068, 90.969 131.047, 89.141 132.396" stroke="none" fill="#f9f9fa" fill-rule="evenodd"/></svg>